<?xml version="1.0" encoding="UTF-8" standalone="no"?>
<!-- Created with Inkscape (http://www.inkscape.org/) -->

<svg
   version="1.1"
   id="svg1"
   width="333.46753"
   height="289.11313"
   viewBox="0 0 333.46754 289.11312"
   xmlns="http://www.w3.org/2000/svg"
   xmlns:svg="http://www.w3.org/2000/svg"
   xmlns:rdf="http://www.w3.org/1999/02/22-rdf-syntax-ns#"
   xmlns:cc="http://creativecommons.org/ns#"
   xmlns:dc="http://purl.org/dc/elements/1.1/">
  <metadata
     id="metadata5240">
    <rdf:RDF>
      <cc:Work
         rdf:about="">
        <dc:format>image/svg+xml</dc:format>
        <dc:type
           rdf:resource="http://purl.org/dc/dcmitype/StillImage" />
      </cc:Work>
    </rdf:RDF>
  </metadata>
  <defs
     id="defs1">
    <clipPath
       clipPathUnits="userSpaceOnUse"
       id="clipPath30">
      <path
         d="M 0,1042.056 H 1130.015 V 0 H 0 Z"
         transform="translate(-90.5776,-875.66002)"
         id="path30" />
    </clipPath>
    <clipPath
       clipPathUnits="userSpaceOnUse"
       id="clipPath32">
      <path
         d="M 0,1042.056 H 1130.015 V 0 H 0 Z"
         transform="translate(-337.16981,-798.88732)"
         id="path32" />
    </clipPath>
    <clipPath
       clipPathUnits="userSpaceOnUse"
       id="clipPath44">
      <path
         d="M 0,1042.056 H 1130.015 V 0 H 0 Z"
         transform="translate(-289.95291,-871.55202)"
         id="path44" />
    </clipPath>
    <clipPath
       clipPathUnits="userSpaceOnUse"
       id="clipPath47">
      <path
         d="M 0,1042.056 H 1130.015 V 0 H 0 Z"
         transform="translate(-291.5605,-871.70952)"
         id="path47" />
    </clipPath>
  </defs>
  <g
     id="layer-MC0"
     transform="translate(-120.73047,-118.89467)">
    <path
       id="path28"
       d="m 121.00622,403.00781 v -18.0625 h 1.09225 l 12.67632,16.4375 h -0.58458 v -16.4375 h 1.29224 v 18.0625 h -1.06148 l -12.7071,-16.4375 h 0.5846 v 16.4375 z m 25.44878,0.10937 c -1.27301,0 -2.40757,-0.28906 -3.39983,-0.875 -0.98457,-0.59375 -1.76915,-1.40625 -2.35373,-2.4375 -0.5846,-1.03125 -0.87689,-2.20703 -0.87689,-3.53125 0,-1.34375 0.29229,-2.52343 0.87689,-3.54687 0.58458,-1.03125 1.36916,-1.83594 2.35373,-2.42188 0.99226,-0.58203 2.12682,-0.87499 3.39983,-0.87499 1.26917,0 2.40374,0.29296 3.39984,0.87499 1.0038,0.58594 1.79222,1.39063 2.36913,2.42188 0.57304,1.02344 0.86149,2.20312 0.86149,3.54687 0,1.32422 -0.28845,2.5 -0.86149,3.53125 -0.57691,1.03125 -1.36533,1.84375 -2.36913,2.4375 -0.9961,0.58594 -2.13067,0.875 -3.39984,0.875 z m 0,-1.17187 c 1.01535,0 1.92684,-0.23438 2.73834,-0.70313 0.8192,-0.47656 1.45378,-1.14453 1.9076,-2 0.46151,-0.86328 0.69227,-1.85156 0.69227,-2.96875 0,-1.13281 -0.23076,-2.1289 -0.69227,-2.98437 -0.45382,-0.85156 -1.0884,-1.51563 -1.9076,-1.98438 -0.8115,-0.47656 -1.72299,-0.71875 -2.73834,-0.71875 -1.01532,0 -1.93066,0.24219 -2.73832,0.71875 -0.79996,0.46875 -1.43839,1.13282 -1.9076,1.98438 -0.46153,0.85547 -0.69228,1.85156 -0.69228,2.98437 0,1.11719 0.23075,2.10547 0.69228,2.96875 0.46921,0.85547 1.10764,1.52344 1.9076,2 0.80766,0.46875 1.723,0.70313 2.73832,0.70313 z m 13.54166,1.0625 -5.96894,-13.46875 h 1.35379 l 5.58435,12.75 h -0.61536 l 5.64589,-12.75 h 1.29224 l -5.99972,13.46875 z m 14.86469,0.10937 c -1.27302,0 -2.40759,-0.28906 -3.39984,-0.875 -0.98457,-0.59375 -1.76915,-1.40625 -2.35373,-2.4375 -0.58459,-1.03125 -0.87689,-2.20703 -0.87689,-3.53125 0,-1.34375 0.2923,-2.52343 0.87689,-3.54687 0.58458,-1.03125 1.36916,-1.83594 2.35373,-2.42188 0.99225,-0.58203 2.12682,-0.87499 3.39984,-0.87499 1.26917,0 2.40372,0.29296 3.39983,0.87499 1.0038,0.58594 1.79222,1.39063 2.36912,2.42188 0.57305,1.02344 0.86149,2.20312 0.86149,3.54687 0,1.32422 -0.28844,2.5 -0.86149,3.53125 -0.5769,1.03125 -1.36532,1.84375 -2.36912,2.4375 -0.99611,0.58594 -2.13066,0.875 -3.39983,0.875 z m 0,-1.17187 c 1.01534,0 1.92683,-0.23438 2.73833,-0.70313 0.81919,-0.47656 1.45377,-1.14453 1.90761,-2 0.4615,-0.86328 0.69226,-1.85156 0.69226,-2.96875 0,-1.13281 -0.23076,-2.1289 -0.69226,-2.98437 -0.45384,-0.85156 -1.08842,-1.51563 -1.90761,-1.98438 -0.8115,-0.47656 -1.72299,-0.71875 -2.73833,-0.71875 -1.01534,0 -1.93068,0.24219 -2.73833,0.71875 -0.79996,0.46875 -1.4384,1.13282 -1.9076,1.98438 -0.46152,0.85547 -0.69228,1.85156 -0.69228,2.98437 0,1.11719 0.23076,2.10547 0.69228,2.96875 0.4692,0.85547 1.10764,1.52344 1.9076,2 0.80765,0.46875 1.72299,0.70313 2.73833,0.70313 z m 18.88371,1.0625 v -3.07813 l -0.0615,-0.45312 v -5.0625 c 0,-1.25781 -0.3346,-2.21094 -0.99995,-2.85938 -0.6692,-0.65625 -1.64608,-0.98437 -2.93832,-0.98437 -0.91534,0 -1.76531,0.16406 -2.55373,0.48437 -0.79226,0.3125 -1.46146,0.71875 -2.01528,1.21875 l -0.63074,-0.9375 c 0.65381,-0.60156 1.44993,-1.07031 2.3845,-1.40625 0.93072,-0.33203 1.9076,-0.49999 2.92294,-0.49999 1.63838,0 2.89986,0.42187 3.78444,1.26562 0.88073,0.84375 1.32301,2.10156 1.32301,3.76562 v 8.54688 z m -4.78438,0.10937 c -0.98457,0 -1.83838,-0.16015 -2.55373,-0.48437 -0.7192,-0.32031 -1.27302,-0.77344 -1.66146,-1.35938 -0.38075,-0.58203 -0.56921,-1.2539 -0.56921,-2.01562 0,-0.6875 0.15769,-1.30469 0.47691,-1.85938 0.31536,-0.5625 0.83841,-1.01953 1.56916,-1.375 0.72688,-0.35156 1.69991,-0.53125 2.92293,-0.53125 h 4.87669 v 1.01563 h -4.86131 c -1.37685,0 -2.33835,0.26172 -2.89217,0.78125 -0.54612,0.51172 -0.81534,1.15234 -0.81534,1.92187 0,0.86719 0.32305,1.5586 0.96917,2.07813 0.64613,0.51172 1.55379,0.76562 2.72296,0.76562 1.11533,0 2.06144,-0.2539 2.83064,-0.76562 0.76919,-0.51953 1.33838,-1.26953 1.7076,-2.25 l 0.35383,0.875 c -0.34998,0.98047 -0.9538,1.76172 -1.81529,2.34375 -0.85381,0.57422 -1.93837,0.85937 -3.26138,0.85937 z m 30.66392,0.15625 -9.70724,-10.39062 c -0.59612,-0.63281 -1.06148,-1.19141 -1.39992,-1.67188 -0.33845,-0.47656 -0.5692,-0.92578 -0.69228,-1.34375 -0.12307,-0.42578 -0.1846,-0.87499 -0.1846,-1.34375 0,-0.73828 0.16921,-1.38281 0.50766,-1.9375 0.34614,-0.55078 0.83842,-0.97656 1.47686,-1.28124 0.63458,-0.3125 1.37685,-0.46876 2.23065,-0.46876 0.78843,0 1.47685,0.14063 2.06144,0.42188 0.58459,0.27344 1.03458,0.66406 1.35378,1.17188 0.32692,0.5 0.49228,1.11718 0.49228,1.84374 0,0.63672 -0.14998,1.22657 -0.44612,1.76563 -0.29998,0.54297 -0.79611,1.08594 -1.49225,1.625 -0.68841,0.54297 -1.63069,1.15625 -2.83062,1.84375 -1.11917,0.65625 -1.9999,1.25 -2.64604,1.78125 -0.64611,0.53125 -1.10378,1.05469 -1.36916,1.5625 -0.25767,0.51172 -0.38459,1.07031 -0.38459,1.67187 0,0.69922 0.1923,1.32032 0.58458,1.85938 0.38845,0.53125 0.92688,0.94531 1.61532,1.23437 0.68457,0.29297 1.48454,0.4375 2.39987,0.4375 1.21918,0 2.29991,-0.2539 3.246,-0.76562 0.9538,-0.50781 1.74608,-1.28125 2.38451,-2.3125 0.64613,-1.03125 1.11149,-2.32813 1.39993,-3.89063 l 1.0461,0.32813 c -0.31921,1.71094 -0.8538,3.13672 -1.59992,4.28125 -0.74995,1.14844 -1.67299,2.00781 -2.7691,2.57812 -1.09994,0.57422 -2.34987,0.85938 -3.75366,0.85938 -1.11917,0 -2.11913,-0.1875 -2.99986,-0.5625 -0.87304,-0.375 -1.56147,-0.89844 -2.06144,-1.57813 -0.49228,-0.6875 -0.73843,-1.47656 -0.73843,-2.375 0,-0.73828 0.1577,-1.42187 0.4769,-2.04687 0.32692,-0.625 0.85381,-1.25 1.58455,-1.875 0.73842,-0.63281 1.72684,-1.30469 2.96908,-2.01563 1.08457,-0.63281 1.94222,-1.17968 2.56911,-1.64062 0.62305,-0.46875 1.06533,-0.91406 1.32302,-1.34375 0.25382,-0.4375 0.38459,-0.90625 0.38459,-1.40625 0,-0.73828 -0.24614,-1.33203 -0.73843,-1.78125 -0.48458,-0.44531 -1.16917,-0.67188 -2.06144,-0.67188 -0.9538,0 -1.69992,0.25 -2.23065,0.75 -0.5346,0.49219 -0.79997,1.13672 -0.79997,1.9375 0,0.38672 0.0538,0.75 0.16923,1.09376 0.12307,0.34374 0.33843,0.73046 0.64611,1.15624 0.31537,0.41797 0.75767,0.9336 1.32302,1.54688 l 9.43032,10.09375 z m 10.68026,-0.26562 v -18.0625 h 7.41503 c 1.9153,0 3.41522,0.39844 4.49209,1.1875 1.08456,0.79297 1.63069,1.93359 1.63069,3.42188 0,0.98046 -0.23075,1.80859 -0.69227,2.48437 -0.45383,0.66797 -1.08456,1.17187 -1.89223,1.51562 -0.79995,0.33594 -1.70375,0.5 -2.70755,0.5 l 0.46151,-0.51562 c 1.21918,0 2.26143,0.18359 3.12293,0.54687 0.86919,0.35547 1.52685,0.875 1.96914,1.5625 0.44998,0.6875 0.67689,1.54688 0.67689,2.57813 0,1.52344 -0.54613,2.69922 -1.63069,3.53125 -1.07687,0.83594 -2.7191,1.25 -4.92284,1.25 z m 1.29224,-1.14063 h 6.63046 c 1.71145,0 3.01524,-0.29687 3.9075,-0.89062 0.89995,-0.59375 1.35379,-1.53906 1.35379,-2.84375 0,-1.28906 -0.45384,-2.23438 -1.35379,-2.82813 -0.89226,-0.59375 -2.19605,-0.89062 -3.9075,-0.89062 h -6.78429 v -1.14063 h 6.23047 c 1.53838,0 2.72679,-0.29687 3.56906,-0.89062 0.84995,-0.60156 1.27686,-1.50781 1.27686,-2.71875 0,-1.1875 -0.42691,-2.08203 -1.27686,-2.6875 -0.84227,-0.60156 -2.03068,-0.90625 -3.56906,-0.90625 h -6.07664 z m 17.39917,1.14063 v -13.46875 h 1.21532 v 3.6875 l -0.123,-0.42188 c 0.36922,-1.08203 0.99226,-1.91406 1.87684,-2.5 0.88073,-0.58203 1.98452,-0.87499 3.30752,-0.87499 v 1.26562 c -0.0538,0 -0.10382,-0.004 -0.15383,-0.0156 -0.0539,-0.008 -0.10384,-0.0156 -0.15383,-0.0156 -1.46917,0 -2.61526,0.46875 -3.44599,1.40625 -0.83074,0.9375 -1.2461,2.24609 -1.2461,3.92187 v 7.01563 z m 17.41456,0 v -3.07813 l -0.0615,-0.45312 v -5.0625 c 0,-1.25781 -0.33459,-2.21094 -0.99995,-2.85938 -0.66919,-0.65625 -1.64606,-0.98437 -2.93832,-0.98437 -0.91534,0 -1.76529,0.16406 -2.55372,0.48437 -0.79228,0.3125 -1.46147,0.71875 -2.0153,1.21875 l -0.63074,-0.9375 c 0.65382,-0.60156 1.44994,-1.07031 2.38452,-1.40625 0.93073,-0.33203 1.9076,-0.49999 2.92292,-0.49999 1.63839,0 2.89987,0.42187 3.78445,1.26562 0.88071,0.84375 1.32301,2.10156 1.32301,3.76562 v 8.54688 z m -4.78439,0.10937 c -0.98457,0 -1.83837,-0.16015 -2.55372,-0.48437 -0.71921,-0.32031 -1.27301,-0.77344 -1.66146,-1.35938 -0.38075,-0.58203 -0.56922,-1.2539 -0.56922,-2.01562 0,-0.6875 0.1577,-1.30469 0.47692,-1.85938 0.31537,-0.5625 0.83842,-1.01953 1.56915,-1.375 0.72689,-0.35156 1.69992,-0.53125 2.92294,-0.53125 h 4.87668 v 1.01563 h -4.8613 c -1.37686,0 -2.33834,0.26172 -2.89218,0.78125 -0.54612,0.51172 -0.81533,1.15234 -0.81533,1.92187 0,0.86719 0.32305,1.5586 0.96918,2.07813 0.64612,0.51172 1.55377,0.76562 2.72295,0.76562 1.11533,0 2.06143,-0.2539 2.83063,-0.76562 0.7692,-0.51953 1.3384,-1.26953 1.70761,-2.25 l 0.35383,0.875 c -0.34999,0.98047 -0.9538,1.76172 -1.8153,2.34375 -0.8538,0.57422 -1.93836,0.85937 -3.26138,0.85937 z m 14.32239,-0.10937 -5.96894,-13.46875 h 1.35378 l 5.58435,12.75 h -0.61536 l 5.64588,-12.75 h 1.29226 l -5.99972,13.46875 z m 10.06106,0 v -13.46875 h 1.27686 v 13.46875 z m 0.64613,-16.75 c -0.28844,0 -0.53458,-0.10156 -0.73843,-0.3125 -0.20769,-0.20703 -0.30768,-0.44531 -0.30768,-0.71875 0,-0.28906 0.10003,-0.53906 0.30768,-0.75 0.20385,-0.20703 0.44999,-0.3125 0.73843,-0.3125 0.29614,0 0.54227,0.10156 0.73843,0.29687 0.1923,0.19922 0.29229,0.44532 0.29229,0.73438 0,0.29297 -0.10003,0.54297 -0.29229,0.75 -0.19616,0.21094 -0.44229,0.3125 -0.73843,0.3125 z m 5.98434,16.75 v -13.46875 h 1.21532 v 3.73437 l -0.16923,-0.40625 c 0.39999,-1.07031 1.06533,-1.91015 1.99992,-2.51562 0.93071,-0.61328 2.07681,-0.92187 3.4306,-0.92187 1.08456,0 2.03065,0.21484 2.83063,0.64062 0.80765,0.41797 1.43838,1.05469 1.89222,1.90625 0.44997,0.85547 0.67688,1.90625 0.67688,3.15625 v 7.875 h -1.27687 v -7.76563 c 0,-1.51953 -0.38073,-2.67578 -1.1384,-3.46875 -0.74996,-0.78906 -1.79991,-1.1875 -3.15369,-1.1875 -1.03841,0 -1.93837,0.21875 -2.70757,0.65625 -0.76149,0.42969 -1.33839,1.03125 -1.73838,1.8125 -0.39227,0.77344 -0.58458,1.69922 -0.58458,2.78125 v 7.17188 z m 31.99847,0 v -3.07813 l -0.0615,-0.45312 v -5.0625 c 0,-1.25781 -0.33461,-2.21094 -0.99995,-2.85938 -0.6692,-0.65625 -1.64608,-0.98437 -2.93833,-0.98437 -0.91533,0 -1.76531,0.16406 -2.55372,0.48437 -0.79227,0.3125 -1.46147,0.71875 -2.01529,1.21875 l -0.63074,-0.9375 c 0.65382,-0.60156 1.44995,-1.07031 2.3845,-1.40625 0.93072,-0.33203 1.90759,-0.49999 2.92294,-0.49999 1.63838,0 2.89987,0.42187 3.78443,1.26562 0.88074,0.84375 1.32302,2.10156 1.32302,3.76562 v 8.54688 z m -4.7844,0.10937 c -0.98457,0 -1.83838,-0.16015 -2.55373,-0.48437 -0.71918,-0.32031 -1.27301,-0.77344 -1.66144,-1.35938 -0.38076,-0.58203 -0.56921,-1.2539 -0.56921,-2.01562 0,-0.6875 0.15768,-1.30469 0.47689,-1.85938 0.31537,-0.5625 0.83843,-1.01953 1.56917,-1.375 0.72688,-0.35156 1.69992,-0.53125 2.92293,-0.53125 h 4.87669 v 1.01563 h -4.8613 c -1.37687,0 -2.33836,0.26172 -2.89217,0.78125 -0.54613,0.51172 -0.81535,1.15234 -0.81535,1.92187 0,0.86719 0.32306,1.5586 0.96919,2.07813 0.64612,0.51172 1.55376,0.76562 2.72294,0.76562 1.11533,0 2.06144,-0.2539 2.83064,-0.76562 0.76919,-0.51953 1.3384,-1.26953 1.70761,-2.25 l 0.35382,0.875 c -0.34998,0.98047 -0.95379,1.76172 -1.81529,2.34375 -0.85381,0.57422 -1.93837,0.85937 -3.26139,0.85937 z m 11.22639,-0.10937 v -13.46875 h 1.21532 v 3.6875 l -0.123,-0.42188 c 0.36922,-1.08203 0.99226,-1.91406 1.87683,-2.5 0.88073,-0.58203 1.98453,-0.87499 3.30753,-0.87499 v 1.26562 c -0.0538,0 -0.10383,-0.004 -0.15383,-0.0156 -0.0538,-0.008 -0.10382,-0.0156 -0.15384,-0.0156 -1.46916,0 -2.61525,0.46875 -3.44598,1.40625 -0.83073,0.9375 -1.2461,2.24609 -1.2461,3.92187 v 7.01563 z m 14.76468,0.10937 c -1.23071,0 -2.34604,-0.28515 -3.33831,-0.85937 -0.99609,-0.58203 -1.78067,-1.39063 -2.35372,-2.42188 -0.5769,-1.03125 -0.86149,-2.21875 -0.86149,-3.5625 0,-1.34375 0.28459,-2.53125 0.86149,-3.5625 0.57305,-1.03125 1.35763,-1.83203 2.35372,-2.40625 0.99227,-0.58203 2.1076,-0.87499 3.33831,-0.87499 1.18841,0 2.24989,0.27734 3.18446,0.82812 0.94227,0.55469 1.68454,1.33984 2.23066,2.35937 0.5423,1.02344 0.81536,2.24219 0.81536,3.65625 0,1.40625 -0.27692,2.625 -0.83074,3.65625 -0.54612,1.02344 -1.28839,1.8086 -2.23065,2.35938 -0.94612,0.55469 -1.9999,0.82812 -3.16909,0.82812 z m 0.0769,-1.17187 c 1.01532,0 1.92297,-0.23438 2.72295,-0.70313 0.80764,-0.47656 1.44608,-1.14453 1.90759,-2 0.4692,-0.86328 0.70765,-1.85156 0.70765,-2.96875 0,-1.13281 -0.23845,-2.1289 -0.70765,-2.98437 -0.46151,-0.85156 -1.09995,-1.51563 -1.90759,-1.98438 -0.79998,-0.47656 -1.70763,-0.71875 -2.72295,-0.71875 -1.01535,0 -1.93068,0.24219 -2.73833,0.71875 -0.79997,0.46875 -1.43839,1.13282 -1.90762,1.98438 -0.4615,0.85547 -0.69227,1.85156 -0.69227,2.98437 0,1.11719 0.23077,2.10547 0.69227,2.96875 0.46923,0.85547 1.10765,1.52344 1.90762,2 0.80765,0.46875 1.72298,0.70313 2.73833,0.70313 z m 5.33819,6.0625 v -9.35938 l 0.26154,-2.35937 -0.23076,-2.34375 v -4.40625 h 1.24609 v 18.46875 z m 12.01098,-4.89063 c -1.13072,0 -2.10759,-0.20703 -2.93833,-0.625 -0.83073,-0.42578 -1.47299,-1.0664 -1.92298,-1.92187 -0.45382,-0.85156 -0.67688,-1.90625 -0.67688,-3.15625 v -7.875 h 1.27684 v 7.76562 c 0,1.51172 0.37692,2.66407 1.13842,3.45313 0.75766,0.79297 1.83453,1.1875 3.23061,1.1875 0.99227,0 1.85376,-0.21094 2.58449,-0.64063 0.72689,-0.42578 1.28455,-1.03125 1.67684,-1.8125 0.38845,-0.78906 0.58459,-1.71875 0.58459,-2.78125 v -7.17187 h 1.27688 v 13.46875 h -1.21534 v -3.75 l 0.16923,0.45312 c -0.39229,1.04297 -1.03841,1.8711 -1.93838,2.48438 -0.9038,0.61719 -1.98452,0.92187 -3.24599,0.92187 z m 11.61098,-0.10937 v -13.46875 h 1.2769 v 13.46875 z m 0.64612,-16.75 c -0.28844,0 -0.53459,-0.10156 -0.73842,-0.3125 -0.20768,-0.20703 -0.30767,-0.44531 -0.30767,-0.71875 0,-0.28906 0.10003,-0.53906 0.30767,-0.75 0.20383,-0.20703 0.44998,-0.3125 0.73842,-0.3125 0.29615,0 0.54229,0.10156 0.73843,0.29687 0.19231,0.19922 0.2923,0.44532 0.2923,0.73438 0,0.29297 -0.10003,0.54297 -0.2923,0.75 -0.19614,0.21094 -0.44228,0.3125 -0.73843,0.3125 z m 9.51494,16.85937 c -1.16918,0 -2.06144,-0.32812 -2.6768,-0.98437 -0.61535,-0.65625 -0.92303,-1.55078 -0.92303,-2.6875 v -12.85938 h 1.26148 v 12.73438 c 0,0.85547 0.20767,1.51562 0.63074,1.98437 0.43075,0.46875 1.0384,0.70313 1.83069,0.70313 0.83071,0 1.51529,-0.25 2.06143,-0.75 l 0.53843,0.89062 c -0.33845,0.33594 -0.74996,0.57813 -1.2307,0.73438 -0.48459,0.15625 -0.98073,0.23437 -1.49224,0.23437 z m -6.04587,-12.46875 v -1.10937 h 7.92271 v 1.10937 z m 17.19918,12.46875 c -1.33455,0 -2.51525,-0.28906 -3.53829,-0.875 -1.02687,-0.59375 -1.83068,-1.40625 -2.41527,-2.4375 -0.58459,-1.03125 -0.87689,-2.20703 -0.87689,-3.53125 0,-1.34375 0.26922,-2.52343 0.81535,-3.54687 0.55382,-1.03125 1.31147,-1.83594 2.27682,-2.42188 0.97303,-0.58203 2.06144,-0.87499 3.26138,-0.87499 1.19994,0 2.27682,0.28906 3.23063,0.85937 0.96148,0.5625 1.71529,1.35937 2.26141,2.39062 0.55383,1.02344 0.83073,2.20313 0.83073,3.54688 0,0.043 -0.008,0.0937 -0.0154,0.15625 0,0.0625 0,0.13281 0,0.20312 h -11.72247 v -1.01562 h 11.03024 l -0.50766,0.5 c 0.0192,-1.05078 -0.19615,-1.99219 -0.64613,-2.82813 -0.45382,-0.83203 -1.06149,-1.48437 -1.83068,-1.95312 -0.7615,-0.47656 -1.63838,-0.71875 -2.63064,-0.71875 -0.98458,0 -1.86146,0.24219 -2.63065,0.71875 -0.76918,0.46875 -1.37685,1.12109 -1.8153,1.95312 -0.44227,0.83594 -0.66149,1.78125 -0.66149,2.84375 v 0.23438 c 0,1.10547 0.23844,2.08594 0.72304,2.9375 0.48074,0.84375 1.14224,1.50781 1.98453,1.98437 0.84995,0.46875 1.81913,0.70313 2.90754,0.70313 0.84996,0 1.63838,-0.14844 2.36912,-0.45313 0.73843,-0.3125 1.36147,-0.78515 1.87683,-1.42187 l 0.73842,0.84375 c -0.57689,0.73047 -1.30378,1.28125 -2.18451,1.65625 -0.87304,0.36719 -1.81529,0.54687 -2.83064,0.54687 z m 15.04544,0 c -1.28456,0 -2.43065,-0.28906 -3.44599,-0.875 -1.00765,-0.59375 -1.79991,-1.40625 -2.38451,-2.4375 -0.58459,-1.03125 -0.87688,-2.20703 -0.87688,-3.53125 0,-1.34375 0.29229,-2.53125 0.87688,-3.5625 0.5846,-1.03125 1.37686,-1.83203 2.38451,-2.40625 1.01534,-0.58203 2.16143,-0.87499 3.44599,-0.87499 1.06534,0 2.03451,0.21093 2.90754,0.62499 0.86919,0.40625 1.57686,1.02735 2.12299,1.85938 l -0.93842,0.6875 c -0.47305,-0.6875 -1.06918,-1.19141 -1.78453,-1.51563 -0.70765,-0.33203 -1.47685,-0.5 -2.30758,-0.5 -1.03841,0 -1.96529,0.24219 -2.78448,0.71875 -0.82305,0.46875 -1.46917,1.13282 -1.93838,1.98438 -0.46151,0.85547 -0.69227,1.85156 -0.69227,2.98437 0,1.13672 0.23076,2.13282 0.69227,2.98438 0.46921,0.84375 1.11533,1.50781 1.93838,1.98437 0.81919,0.46875 1.74607,0.70313 2.78448,0.70313 0.83073,0 1.59993,-0.16016 2.30758,-0.48438 0.71535,-0.33203 1.31148,-0.84375 1.78453,-1.53125 l 0.93842,0.70313 c -0.54613,0.82422 -1.2538,1.44531 -2.12299,1.85937 -0.87303,0.41797 -1.8422,0.625 -2.90754,0.625 z m 12.85323,0 c -1.16917,0 -2.06144,-0.32812 -2.6768,-0.98437 -0.61536,-0.65625 -0.92302,-1.55078 -0.92302,-2.6875 v -12.85938 h 1.26147 v 12.73438 c 0,0.85547 0.20769,1.51562 0.63075,1.98437 0.43074,0.46875 1.03841,0.70313 1.83066,0.70313 0.83075,0 1.51533,-0.25 2.06145,-0.75 l 0.53844,0.89062 c -0.33845,0.33594 -0.74996,0.57813 -1.23072,0.73438 -0.48458,0.15625 -0.98072,0.23437 -1.49223,0.23437 z m -6.04586,-12.46875 v -1.10937 h 7.92269 v 1.10937 z m 16.99918,12.46875 c -1.27301,0 -2.40757,-0.28906 -3.39983,-0.875 -0.98457,-0.59375 -1.76915,-1.40625 -2.35374,-2.4375 -0.58458,-1.03125 -0.87688,-2.20703 -0.87688,-3.53125 0,-1.34375 0.2923,-2.52343 0.87688,-3.54687 0.58459,-1.03125 1.36917,-1.83594 2.35374,-2.42188 0.99226,-0.58203 2.12682,-0.87499 3.39983,-0.87499 1.26918,0 2.40374,0.29296 3.39985,0.87499 1.0038,0.58594 1.79221,1.39063 2.36912,2.42188 0.57304,1.02344 0.8615,2.20312 0.8615,3.54687 0,1.32422 -0.28846,2.5 -0.8615,3.53125 -0.57691,1.03125 -1.36532,1.84375 -2.36912,2.4375 -0.99611,0.58594 -2.13067,0.875 -3.39985,0.875 z m 0,-1.17187 c 1.01533,0 1.92684,-0.23438 2.73833,-0.70313 0.8192,-0.47656 1.45377,-1.14453 1.90761,-2 0.46152,-0.86328 0.69228,-1.85156 0.69228,-2.96875 0,-1.13281 -0.23076,-2.1289 -0.69228,-2.98437 -0.45384,-0.85156 -1.08841,-1.51563 -1.90761,-1.98438 -0.81149,-0.47656 -1.723,-0.71875 -2.73833,-0.71875 -1.01532,0 -1.93067,0.24219 -2.73832,0.71875 -0.79997,0.46875 -1.43841,1.13282 -1.90761,1.98438 -0.46151,0.85547 -0.69227,1.85156 -0.69227,2.98437 0,1.11719 0.23076,2.10547 0.69227,2.96875 0.4692,0.85547 1.10764,1.52344 1.90761,2 0.80765,0.46875 1.723,0.70313 2.73832,0.70313 z m 13.91857,1.17187 c -1.09995,0 -2.13067,-0.16015 -3.09214,-0.48437 -0.95381,-0.33203 -1.69225,-0.75 -2.21528,-1.25 l 0.58458,-1.03125 c 0.49998,0.44922 1.17686,0.83594 2.03065,1.15625 0.84997,0.3125 1.76147,0.46875 2.73834,0.46875 1.39224,0 2.3922,-0.22656 2.99987,-0.6875 0.61535,-0.46875 0.92302,-1.08203 0.92302,-1.84375 0,-0.55078 -0.16154,-0.98438 -0.47689,-1.29688 -0.30768,-0.32031 -0.73074,-0.5664 -1.26149,-0.73437 -0.52304,-0.17578 -1.09995,-0.31641 -1.723,-0.42188 -0.6269,-0.11328 -1.25378,-0.23828 -1.87682,-0.375 -0.62689,-0.14453 -1.20764,-0.34375 -1.73838,-0.59375 -0.52305,-0.25781 -0.94611,-0.61718 -1.26148,-1.07812 -0.30768,-0.45703 -0.46151,-1.06641 -0.46151,-1.82813 0,-0.6875 0.1846,-1.30468 0.55381,-1.85937 0.37692,-0.55078 0.93843,-0.99219 1.67685,-1.32813 0.74611,-0.33203 1.68068,-0.49999 2.79986,-0.49999 0.83074,0 1.6653,0.12109 2.50757,0.35937 0.83843,0.24219 1.52301,0.55859 2.04607,0.95312 l -0.58459,1.03125 c -0.55382,-0.42578 -1.18072,-0.73437 -1.87684,-0.92187 -0.69998,-0.1875 -1.39994,-0.28125 -2.10759,-0.28125 -1.29225,0 -2.2422,0.24219 -2.84601,0.71875 -0.59613,0.48047 -0.89227,1.08594 -0.89227,1.8125 0,0.5625 0.15384,1.01562 0.46153,1.35937 0.31535,0.33594 0.73841,0.58985 1.26146,0.76563 0.52306,0.17969 1.0961,0.32422 1.72298,0.4375 0.63461,0.11719 1.26534,0.24219 1.89223,0.375 0.62306,0.13672 1.19994,0.32812 1.72299,0.57812 0.52307,0.25 0.93842,0.59375 1.24611,1.03125 0.31536,0.4375 0.47689,1.02735 0.47689,1.76563 0,0.74219 -0.19999,1.38672 -0.59997,1.9375 -0.39229,0.55469 -0.97688,0.98437 -1.75376,1.29687 -0.78075,0.3125 -1.73838,0.46875 -2.87679,0.46875 z m 0,0"
       style="fill:#082c60;fill-opacity:1;fill-rule:nonzero;stroke:none;stroke-width:1.33333"
       aria-label="Novoa &amp; Bravin arquitectos" />
    <path
       id="path29"
       d="M 0,0 V -76.803 77.229 L 124.857,-76.773 0,-76.803"
       style="fill:#082c60;fill-opacity:1;fill-rule:nonzero;stroke:none"
       transform="matrix(1.3333333,0,0,-1.3333333,120.77013,221.86667)"
       clip-path="url(#clipPath30)" />
    <path
       id="path31"
       d="M 0,0 H 0.033 3.121 V 153.665 H -121.735 V 0 h 66.733 10.607"
       style="fill:#082c60;fill-opacity:1;fill-rule:nonzero;stroke:none"
       transform="matrix(1.3333333,0,0,-1.3333333,449.55973,324.23027)"
       clip-path="url(#clipPath32)" />
    <path
       id="path35"
       transform="matrix(1.3333333,0,0,-1.3333333,392.28427,244.44147)"
       style="fill:#ffffff;fill-opacity:1;fill-rule:nonzero;stroke:none"
       d="m 0,0 v 0 l -71.959,86.458 c 0,0.007 72.064,0.013 72.071,0.013 z m 0,0 c 23.775,-0.045 43.075,19.21 43.085,42.985 l 10e-4,0.462 C 43.096,67.193 23.858,86.454 0.112,86.471 v 0 z" />
    <path
       id="path41"
       transform="matrix(1.3333333,0,0,-1.3333333,296.3396,206.82373)"
       style="fill:#ffffff;fill-opacity:1;fill-rule:nonzero;stroke:none"
       d="m 0,0 v 58.244 l 59.197,-59.79 z m 71.961102,-84.182207 v 0 L 1.0180193e-4,0.0027929 c 0,0.007 72.06999719807,0.0106005 72.06999719807,0.0106005 z m -3e-6,-4e-4 c 23.775,-0.044 43.074001,18.703 43.084001,41.853 v 0.449 c 0.01,23.122 -19.228001,41.8760004 -42.975001,41.8940004 z" />
    <path
       id="path43"
       d="m 0,0 c 17.056,-0.031 30.901,12.951 30.908,28.981 v 0.312 C 30.915,45.304 17.112,58.292 0.076,58.304 v 0"
       style="fill:#082c60;fill-opacity:1;fill-rule:nonzero;stroke:none"
       transform="matrix(1.3333333,0,0,-1.3333333,386.60387,227.344)"
       clip-path="url(#clipPath44)" />
    <path
       id="path45"
       d="m 120.73047,377.5 v -35.46875 h 4.06413 l 23.03521,29.14063 h -2.14709 v -29.14063 h 4.98432 V 377.5 h -4.07947 l -23.03521,-29.14062 h 2.14709 V 377.5 Z m 92.53957,0.40625 c -2.64936,0 -5.10701,-0.45312 -7.37679,-1.35937 -2.26978,-0.91406 -4.2405,-2.19141 -5.90449,-3.82813 -1.65633,-1.64453 -2.95226,-3.5625 -3.88011,-5.75 -0.92018,-2.19531 -1.38027,-4.59765 -1.38027,-7.20312 0,-2.60156 0.46009,-5 1.38027,-7.1875 0.92785,-2.19531 2.22378,-4.11328 3.88011,-5.75 1.66399,-1.64453 3.6232,-2.92188 5.87382,-3.82813 2.25827,-0.91406 4.72743,-1.375 7.40746,-1.375 2.65702,0 5.11084,0.44922 7.36145,1.34375 2.25828,0.89844 4.21749,2.16407 5.87382,3.79688 1.65633,1.63672 2.93691,3.5625 3.84943,5.78125 0.90868,2.21094 1.36493,4.61719 1.36493,7.21875 0,2.63672 -0.45625,5.05469 -1.36493,7.25 -0.91252,2.1875 -2.1931,4.10547 -3.84943,5.75 -1.65633,1.63672 -3.61554,2.90234 -5.87382,3.79687 -2.25061,0.89844 -4.70443,1.34375 -7.36145,1.34375 z m -0.046,-4.51562 c 1.95155,0 3.7459,-0.33203 5.38305,-1 1.64483,-0.67578 3.07111,-1.62891 4.27885,-2.85938 1.21541,-1.23828 2.16242,-2.6875 2.83722,-4.34375 0.68247,-1.65625 1.02754,-3.46093 1.02754,-5.42187 0,-1.95703 -0.34507,-3.75391 -1.02754,-5.39063 -0.6748,-1.64453 -1.62181,-3.09375 -2.83722,-4.34375 -1.20774,-1.25 -2.63402,-2.20703 -4.27885,-2.875 -1.63715,-0.67578 -3.4315,-1.01562 -5.38305,-1.01562 -1.92472,0 -3.70757,0.33984 -5.3524,1.01562 -1.63715,0.66797 -3.06727,1.625 -4.29418,2.875 -1.2269,1.25 -2.18542,2.69922 -2.86789,4.34375 -0.6748,1.63672 -1.0122,3.4336 -1.0122,5.39063 0,1.96094 0.3374,3.76562 1.0122,5.42187 0.68247,1.65625 1.64099,3.10547 2.86789,4.34375 1.22691,1.23047 2.65703,2.1836 4.29418,2.85938 1.64483,0.66797 3.42768,1 5.3524,1 z M 275.79252,377.5 v -35.46875 h 15.61241 c 4.00662,0 7.08923,0.82032 9.24783,2.45313 2.15475,1.63672 3.23596,3.875 3.23596,6.71875 0,1.92969 -0.42558,3.55469 -1.27291,4.875 -0.85116,1.3125 -1.98606,2.32422 -3.40468,3.03125 -1.42244,0.71094 -2.96757,1.0625 -4.63157,1.0625 l 0.90485,-1.51563 c 1.98222,0 3.73439,0.35547 5.26036,1.0625 1.53363,0.71094 2.74522,1.7461 3.63472,3.10938 0.89718,1.36719 1.3496,3.0625 1.3496,5.09375 0,3.04297 -1.11956,5.40234 -3.35866,7.07812 -2.23911,1.66797 -5.56327,2.5 -9.96863,2.5 z m 4.96899,-4.10937 h 11.44092 c 2.74903,0 4.85012,-0.46875 6.30324,-1.40625 1.46078,-0.94531 2.19309,-2.4375 2.19309,-4.46875 0,-2.0625 -0.73231,-3.5625 -2.19309,-4.5 -1.45312,-0.94531 -3.55421,-1.42188 -6.30324,-1.42188 h -11.88569 v -4.10937 h 10.64344 c 2.51516,0 4.46671,-0.47266 5.85849,-1.42188 1.39945,-0.94531 2.10108,-2.36328 2.10108,-4.25 0,-1.89453 -0.70163,-3.3125 -2.10108,-4.25 -1.39178,-0.94531 -3.34333,-1.42187 -5.85849,-1.42187 h -10.19867 z m 69.1286,4.10937 v -35.46875 h 13.57269 c 4.50888,0 8.05541,1.08985 10.64342,3.26563 2.58419,2.17969 3.8801,5.21094 3.8801,9.09375 0,2.57422 -0.58277,4.78125 -1.74834,6.625 -1.15789,1.83594 -2.81421,3.24219 -4.96898,4.21875 -2.15859,0.98047 -4.76193,1.46875 -7.8062,1.46875 H 352.62 l 2.2391,-2.32813 V 377.5 Z m 23.26527,0 -8.84908,-12.875 h 5.32172 l 8.95643,12.875 z M 354.8591,364.875 352.62,362.40625 h 10.68943 c 3.17846,0 5.5901,-0.70312 7.23876,-2.10937 1.64483,-1.40625 2.46916,-3.375 2.46916,-5.90625 0,-2.53125 -0.82433,-4.48828 -2.46916,-5.875 -1.64866,-1.38281 -4.0603,-2.07813 -7.23876,-2.07813 H 352.62 l 2.2391,-2.53125 z m 62.36146,12.625 15.76577,-35.46875 h 4.92297 L 453.72108,377.5 h -5.21435 l -14.07879,-32.625 h 1.99373 L 422.34291,377.5 Z m 6.71733,-8.875 1.33425,-4.04687 H 444.872 l 1.44161,4.04687 z m 0,0"
       style="fill:#082c60;fill-opacity:1;fill-rule:nonzero;stroke:none;stroke-width:1.33333"
       aria-label="NOBRA" />
    <path
       id="path46"
       d="m 0,0 -1.608,-0.157 -51.628,58.299 c 0,0.005 52.167,0.011 52.173,0.011 z"
       style="fill:#082c60;fill-opacity:1;fill-rule:nonzero;stroke:none"
       transform="matrix(1.3333333,0,0,-1.3333333,388.74733,227.134)"
       clip-path="url(#clipPath47)" />
  </g>
</svg>
